<?xml version="1.0" encoding="UTF-8" standalone="no"?>
<!-- Generator: Adobe Illustrator 16.0.0, SVG Export Plug-In . SVG Version: 6.00 Build 0)  -->

<svg
   xmlns:dc="http://purl.org/dc/elements/1.1/"
   xmlns:cc="http://creativecommons.org/ns#"
   xmlns:rdf="http://www.w3.org/1999/02/22-rdf-syntax-ns#"
   xmlns:svg="http://www.w3.org/2000/svg"
   xmlns="http://www.w3.org/2000/svg"
   xmlns:sodipodi="http://sodipodi.sourceforge.net/DTD/sodipodi-0.dtd"
   xmlns:inkscape="http://www.inkscape.org/namespaces/inkscape"
   version="1.1"
   id="Capa_1"
   x="0px"
   y="0px"
   width="440.25px"
   height="440.251px"
   viewBox="0 0 440.25 440.251"
   style="enable-background:new 0 0 440.25 440.251;"
   xml:space="preserve"
   sodipodi:docname="arrowheads-pointing-to-the-right.svg"
   inkscape:version="0.92.5 (2060ec1f9f, 2020-04-08)"><metadata
   id="metadata41"><rdf:RDF><cc:Work
       rdf:about=""><dc:format>image/svg+xml</dc:format><dc:type
         rdf:resource="http://purl.org/dc/dcmitype/StillImage" /></cc:Work></rdf:RDF></metadata><defs
   id="defs39" /><sodipodi:namedview
   pagecolor="#ffffff"
   bordercolor="#666666"
   borderopacity="1"
   objecttolerance="10"
   gridtolerance="10"
   guidetolerance="10"
   inkscape:pageopacity="0"
   inkscape:pageshadow="2"
   inkscape:window-width="640"
   inkscape:window-height="480"
   id="namedview37"
   showgrid="false"
   showguides="true"
   inkscape:zoom="0.53605783"
   inkscape:cx="220.125"
   inkscape:cy="220.1255"
   inkscape:window-x="0"
   inkscape:window-y="27"
   inkscape:window-maximized="0"
   inkscape:current-layer="Capa_1" />
<g
   id="g4"
   transform="rotate(180,220.1255,220.12561)">
	<path
   d="m 436.538,0.861 c -2.471,-1.143 -5.513,0.094 -9.134,3.709 L 224.692,207.273 c -1.521,1.524 -2.762,3.333 -3.711,5.424 V 9.989 c 0,-4.948 -1.237,-7.994 -3.711,-9.137 -2.474,-1.141 -5.52,0.096 -9.136,3.711 L 5.424,207.273 C 1.809,210.891 0,215.172 0,220.12 c 0,4.948 1.809,9.233 5.424,12.847 l 202.71,202.709 c 3.616,3.62 6.662,4.862 9.136,3.72 2.474,-1.144 3.711,-4.189 3.711,-9.138 V 227.546 c 0.953,1.903 2.19,3.717 3.711,5.425 l 202.712,202.711 c 3.621,3.617 6.663,4.86 9.134,3.717 2.478,-1.143 3.713,-4.188 3.713,-9.137 V 9.996 c -0.003,-4.948 -1.236,-7.994 -3.713,-9.135 z"
   id="path2"
   inkscape:connector-curvature="0" />
</g>
<g
   id="g6">
</g>
<g
   id="g8">
</g>
<g
   id="g10">
</g>
<g
   id="g12">
</g>
<g
   id="g14">
</g>
<g
   id="g16">
</g>
<g
   id="g18">
</g>
<g
   id="g20">
</g>
<g
   id="g22">
</g>
<g
   id="g24">
</g>
<g
   id="g26">
</g>
<g
   id="g28">
</g>
<g
   id="g30">
</g>
<g
   id="g32">
</g>
<g
   id="g34">
</g>
</svg>